<?xml version="1.0" encoding="utf-8"?>
<!-- Generator: Adobe Illustrator 15.0.0, SVG Export Plug-In . SVG Version: 6.00 Build 0)  -->
<!DOCTYPE svg PUBLIC "-//W3C//DTD SVG 1.1//EN" "http://www.w3.org/Graphics/SVG/1.1/DTD/svg11.dtd">
<svg version="1.1" id="Layer_1" xmlns="http://www.w3.org/2000/svg" xmlns:xlink="http://www.w3.org/1999/xlink" x="0px" y="0px"
	 width="282px" height="252px" viewBox="0 0 282 252" enable-background="new 0 0 282 252" xml:space="preserve">
<path fill-rule="evenodd" clip-rule="evenodd" fill="#FFFFFF" d="M155.646,226.271h-31.044c-1.441-3.846-0.479-5.602,3.622-5.549
	c7.839,0.1,15.69,0.139,23.531-0.02C155.95,220.618,156.58,222.542,155.646,226.271"/>
<path fill-rule="evenodd" clip-rule="evenodd" fill="#FFFFFF" d="M124.641,238.472c-1.553-3.963-0.43-5.609,3.623-5.559
	c7.842,0.104,15.692,0.139,23.532-0.012c4.234-0.078,4.778,1.896,3.842,5.57H124.641z"/>
<path fill-rule="evenodd" clip-rule="evenodd" fill="#FFFFFF" d="M115.958,99.689c1.753-0.336,2.192-0.473,2.635-0.49
	c19.599-0.855,19.599-0.855,31.848,14.464c0.426,0.535,0.954,1.002,1.27,1.59c6.142,11.631,15.477,16.518,28.668,14.332
	c2.044-0.338,5.182,1.391,6.665,3.141c9.328,11.018,18.48,22.201,27.318,33.609c1.733,2.242,2.615,5.695,2.648,8.604
	c0.225,20.547,0.113,41.102,0.113,61.65v8.104c2.888,0.162,5.27,0.412,7.654,0.416c16.457,0.033,32.927-0.072,49.384,0.137
	c1.96,0.027,3.887,1.703,5.839,2.611c-2.009,1.039-4.008,2.959-6.022,2.984c-20.068,0.207-40.14,0.107-60.207,0.07
	c-0.651,0-1.299-0.229-2.857-0.521v-7.066c0-22.129,0.143-44.26-0.155-66.391c-0.043-3.271-1.441-7.047-3.425-9.672
	c-6.65-8.803-13.853-17.195-21.959-27.121v110.314h-22.016c-0.115-2.709-0.323-5.326-0.327-7.949
	c-0.02-32.295,0.119-64.586-0.197-96.879c-0.039-3.887-1.749-8.305-4.041-11.508c-5.829-8.17-12.402-15.785-19.943-25.189v141.406
	c-2.421,0.262-4.133,0.613-5.844,0.619c-42.396,0.027-84.788,0.027-127.185,0.006c-3.164,0-7.298,0.881-5.293-5.59h82.811V129.897
	h22.196v115.207h10.424V99.689z"/>
<rect x="135.734" y="36.454" fill-rule="evenodd" clip-rule="evenodd" fill="#FFFFFF" width="8.522" height="58.35"/>
<path fill-rule="evenodd" clip-rule="evenodd" fill="#FFFFFF" d="M125.379,160.56h30.963v5.926c-9.622,0-18.971,0.199-28.297-0.189
	c-1.521-0.063-2.932-2.688-4.39-4.123C124.234,161.634,124.797,161.097,125.379,160.56"/>
<path fill-rule="evenodd" clip-rule="evenodd" fill="#FFFFFF" d="M124.823,172.745h30.606c0.431,0.498,0.861,1,1.281,1.498
	c-1.393,1.297-2.758,3.646-4.203,3.709c-8.257,0.359-16.535,0.344-24.795,0.023c-1.513-0.055-2.955-2.088-4.426-3.215
	C123.802,174.091,124.313,173.417,124.823,172.745"/>
<path fill-rule="evenodd" clip-rule="evenodd" fill="#FFFFFF" d="M124.95,184.522c9.368,0,18.743-0.1,28.1,0.131
	c1.124,0.027,2.204,1.857,3.304,2.852c-1.188,0.941-2.352,2.654-3.563,2.688c-8.284,0.242-16.592,0.324-24.869-0.053
	c-1.48-0.064-2.858-2.484-4.286-3.816C124.072,185.72,124.512,185.122,124.95,184.522"/>
<path fill-rule="evenodd" clip-rule="evenodd" fill="#FFFFFF" d="M125.209,196.911h30.39c1.365,3.324,1.398,5.631-3.124,5.617
	c-8.065-0.021-16.148,0.189-24.202-0.164c-1.604-0.074-3.13-2.227-4.684-3.424C124.129,198.263,124.666,197.587,125.209,196.911"/>
<path fill-rule="evenodd" clip-rule="evenodd" fill="#FFFFFF" d="M123.661,212.276c1.509-1.127,2.987-3.17,4.534-3.223
	c8.98-0.313,17.975-0.152,27.121-0.152c1.833,3.629,1.41,5.539-3.016,5.5c-8.982-0.078-17.975-0.025-26.957-0.025
	C124.787,213.683,124.225,212.979,123.661,212.276"/>
<path fill-rule="evenodd" clip-rule="evenodd" fill="#FFFFFF" d="M138.148,32.241V1.001c1.477,0.849,3.3,1.418,3.29,1.963
	c-0.146,9.831,1.439,19.8-0.793,29.478C139.816,32.374,138.979,32.31,138.148,32.241"/>
</svg>
