<?xml version="1.0" encoding="utf-8"?>
<!-- Generator: Adobe Illustrator 15.0.0, SVG Export Plug-In . SVG Version: 6.00 Build 0)  -->
<!DOCTYPE svg PUBLIC "-//W3C//DTD SVG 1.1//EN" "http://www.w3.org/Graphics/SVG/1.1/DTD/svg11.dtd">
<svg version="1.1" id="Layer_1" xmlns="http://www.w3.org/2000/svg" xmlns:xlink="http://www.w3.org/1999/xlink" x="0px" y="0px"
	 width="285px" height="255px" viewBox="0 0 285 255" enable-background="new 0 0 285 255" xml:space="preserve">
<path fill-rule="evenodd" clip-rule="evenodd" fill="#BE0013" d="M156.887,226.294h-31.094c-1.443-3.846-0.479-5.603,3.628-5.55
	c7.852,0.101,15.716,0.139,23.567-0.02C157.191,220.642,157.822,222.565,156.887,226.294"/>
<path fill-rule="evenodd" clip-rule="evenodd" fill="#BE0013" d="M125.828,238.497c-1.555-3.965-0.429-5.611,3.63-5.559
	c7.854,0.103,15.718,0.137,23.569-0.014c4.24-0.077,4.785,1.897,3.848,5.572H125.828z"/>
<path fill-rule="evenodd" clip-rule="evenodd" fill="#BE0013" d="M117.133,99.7c1.756-0.336,2.197-0.473,2.641-0.492
	c19.627-0.855,19.627-0.855,31.894,14.467c0.428,0.533,0.955,1.001,1.273,1.59c6.148,11.633,15.5,16.519,28.711,14.334
	c2.045-0.34,5.188,1.391,6.676,3.141c9.342,11.019,18.508,22.204,27.357,33.612c1.738,2.243,2.621,5.695,2.654,8.604
	c0.225,20.55,0.113,41.107,0.113,61.656v8.105c2.893,0.161,5.277,0.411,7.664,0.415c16.484,0.033,32.977-0.072,49.461,0.138
	c1.963,0.027,3.893,1.703,5.846,2.611c-2.01,1.04-4.014,2.96-6.029,2.984c-20.102,0.208-40.203,0.107-60.299,0.071
	c-0.652,0-1.301-0.229-2.863-0.521v-7.067c0-22.131,0.143-44.266-0.154-66.398c-0.043-3.271-1.443-7.049-3.43-9.673
	c-6.66-8.804-13.873-17.196-21.992-27.123v110.325h-22.049c-0.115-2.709-0.324-5.326-0.328-7.949
	c-0.021-32.298,0.119-64.594-0.197-96.891c-0.039-3.887-1.752-8.305-4.047-11.509c-5.838-8.169-12.422-15.786-19.975-25.191v141.422
	c-2.424,0.261-4.139,0.612-5.853,0.618c-42.459,0.028-84.917,0.028-127.378,0.007c-3.169,0-7.309,0.881-5.302-5.592h82.938V129.91
	h22.23v115.219h10.438V99.7z"/>
<rect x="136.944" y="36.457" fill-rule="evenodd" clip-rule="evenodd" fill="#BE0013" width="8.536" height="58.354"/>
<path fill-rule="evenodd" clip-rule="evenodd" fill="#BE0013" d="M126.571,160.577h31.011v5.926c-9.637,0-19.002,0.198-28.341-0.19
	c-1.522-0.062-2.936-2.688-4.397-4.122C125.424,161.651,125.988,161.114,126.571,160.577"/>
<path fill-rule="evenodd" clip-rule="evenodd" fill="#BE0013" d="M126.015,172.762h30.653c0.432,0.499,0.863,1.001,1.283,1.5
	c-1.396,1.296-2.764,3.647-4.211,3.708c-8.268,0.36-16.561,0.344-24.833,0.025c-1.514-0.057-2.961-2.09-4.432-3.216
	C124.991,174.108,125.501,173.436,126.015,172.762"/>
<path fill-rule="evenodd" clip-rule="evenodd" fill="#BE0013" d="M126.146,184.542c9.381,0,18.77-0.1,28.143,0.13
	c1.125,0.028,2.205,1.857,3.307,2.852c-1.189,0.942-2.354,2.655-3.566,2.688c-8.297,0.243-16.619,0.324-24.908-0.053
	c-1.482-0.064-2.862-2.484-4.292-3.816C125.267,185.739,125.707,185.142,126.146,184.542"/>
<path fill-rule="evenodd" clip-rule="evenodd" fill="#BE0013" d="M126.401,196.933h30.437c1.367,3.323,1.4,5.631-3.129,5.617
	c-8.08-0.022-16.174,0.188-24.24-0.165c-1.605-0.073-3.134-2.228-4.689-3.423C125.319,198.283,125.856,197.607,126.401,196.933"/>
<path fill-rule="evenodd" clip-rule="evenodd" fill="#BE0013" d="M124.85,212.298c1.511-1.127,2.992-3.171,4.54-3.224
	c8.993-0.313,18.003-0.152,27.163-0.152c1.836,3.63,1.412,5.54-3.02,5.501c-8.996-0.078-18.004-0.025-26.999-0.025
	C125.977,213.704,125.412,213.001,124.85,212.298"/>
<path fill-rule="evenodd" clip-rule="evenodd" fill="#BE0013" d="M139.359,32.244V1c1.479,0.85,3.307,1.419,3.297,1.964
	c-0.146,9.832,1.44,19.803-0.795,29.48C141.03,32.377,140.193,32.312,139.359,32.244"/>
</svg>
